<svg xmlns="http://www.w3.org/2000/svg" width="216" height="76" viewBox="0 0 216 76">
    <defs>
        <linearGradient id="prefix__b" x1="6.68%" x2="62.02%" y1="81.867%" y2="81.867%">
            <stop offset="0%" stop-color="#FFF"/>
            <stop offset="100%" stop-color="#FFF" stop-opacity="0"/>
        </linearGradient>
        <linearGradient id="prefix__c" x1="6.68%" x2="62.02%" y1="81.867%" y2="81.867%">
            <stop offset="0%" stop-color="#FFF" stop-opacity="0"/>
            <stop offset="100%" stop-color="#FFF"/>
        </linearGradient>
        <radialGradient id="prefix__a" cx="50.36%" cy="81.867%" r="2963.157%" fx="50.36%" fy="81.867%" gradientTransform="matrix(.01186 0 0 1 .498 0)">
            <stop offset="0%" stop-color="#FFF"/>
            <stop offset="86%" stop-color="#FFF"/>
            <stop offset="100%" stop-color="#FFF"/>
        </radialGradient>
    </defs>
    <g fill="none" fill-rule="evenodd">
        <path fill="url(#prefix__a)" fill-rule="nonzero" d="M14.424 53.963H205.05V56.223H14.424z" transform="translate(-1)"/>
        <path fill="url(#prefix__b)" fill-rule="nonzero" d="M204.768 53.963H224.566V56.223H204.768z" transform="translate(-1)"/>
        <path fill="url(#prefix__c)" fill-rule="nonzero" d="M0 53.963H19.798V56.223H0z" transform="translate(-1)"/>
        <path fill="#FEFEFE" d="M153.964 26.716c5.673 0 7.878 3.856 7.878 8.579h-15.758c.315-4.723 2.758-8.58 7.88-8.58m-7.722 16.608h28.365v-2.598c0-12.2-5.515-22.983-20.723-22.983-12.764 0-21.982 7.871-21.982 21.41 0 6.607 2.463 11.879 6.556 15.548h32.367v-6.654c-4.255 2.281-8.667 3.147-12.528 3.147-6.934 0-11.267-2.204-12.055-7.87M68.529 51.193c-3.309 0-5.83-1.652-5.83-4.486 0-3.936 3.782-5.431 8.588-5.431 2.128 0 4.176.158 5.988.237 0 4.8-3.388 9.68-8.746 9.68M54.583 20.654l.236 9.604c3.94-2.204 8.51-3.07 13.08-3.07 5.122 0 9.298 1.495 9.376 7.084-1.812-.314-4.333-.551-6.618-.551-7.564 0-21.195 1.495-21.195 14.008 0 2.798.718 5.112 1.954 6.97H84.07V21.124c-3.511-2.377-8.145-3.38-13.098-3.38-6.067 0-11.346.865-16.389 2.911M85.664 54.7L99.847 54.7 99.847.663 85.664.663z" transform="translate(-1)"/>
        <path fill="#FEFEFE" d="M118.125 49.776c-5.358 0-8.588-4.486-8.588-11.018 0-5.431 3.073-10.155 8.588-10.155 5.2 0 8.668 4.487 8.668 10.705 0 5.982-3.94 10.468-8.668 10.468m12.183-10.624c0-9.12 3.945-16.133 10.667-19.905V.663h-14.262V23.96h-.157c-3.624-4.723-8.43-6.218-14.104-6.218-4.5 0-8.19 1.676-11.01 4.322V54.7h34.742c-3.847-4.042-5.876-9.378-5.876-15.548M71.083 70.393c.638 0 1.134.202 1.487.607.353.404.53 1.006.53 1.804v.684c0 .799-.177 1.4-.53 1.805-.353.404-.849.606-1.487.606-.638 0-1.133-.202-1.483-.606-.35-.405-.525-1.006-.525-1.805v-.684c0-.798.175-1.4.525-1.804.35-.405.845-.607 1.483-.607zm44.158 0c.638 0 1.134.202 1.486.607.354.404.53 1.006.53 1.804v.684c0 .799-.176 1.4-.53 1.805-.352.404-.848.606-1.486.606s-1.133-.202-1.483-.606c-.35-.405-.526-1.006-.526-1.805v-.684c0-.798.175-1.4.526-1.804.35-.405.845-.607 1.483-.607zm34.168 0c.64 0 1.135.202 1.488.607.353.404.529 1.006.529 1.804v.684c0 .799-.176 1.4-.53 1.805-.352.404-.848.606-1.487.606-.638 0-1.132-.202-1.482-.606-.35-.405-.526-1.006-.526-1.805v-.684c0-.798.175-1.4.526-1.804.35-.405.844-.607 1.482-.607zm-48.953 0c.842 0 1.454.293 1.838.879l-.685.49c-.151-.208-.313-.356-.487-.447-.174-.091-.398-.137-.673-.137-.28 0-.497.062-.65.184-.154.121-.23.294-.23.517 0 .238.088.42.265.548.176.127.472.237.887.33.582.13 1 .315 1.257.556.257.241.386.59.386 1.046 0 .436-.153.801-.46 1.097-.306.296-.762.443-1.37.443-.903 0-1.572-.293-2.008-.878l.708-.49c.177.207.359.356.545.447.187.09.423.136.709.136.649 0 .973-.238.973-.716 0-.228-.087-.41-.261-.548-.174-.137-.479-.253-.915-.346-1.08-.223-1.62-.765-1.62-1.625 0-.451.154-.812.46-1.082.306-.269.75-.404 1.331-.404zm35.244.07v3.196c0 .503.09.871.268 1.105.18.233.458.35.837.35.38 0 .658-.117.837-.35.18-.234.269-.602.269-1.105v-3.196h.903v3.189c0 .746-.175 1.308-.526 1.684-.35.376-.844.563-1.483.563-.638 0-1.132-.186-1.482-.56-.351-.373-.526-.933-.526-1.68v-3.196h.903zm-58.412-.07c.545 0 .985.147 1.32.44.335.293.546.724.634 1.295h-.872c-.135-.633-.495-.95-1.082-.95-.374 0-.651.132-.833.393-.182.262-.273.673-.273 1.233v.684c0 1.084.369 1.626 1.106 1.626.306 0 .545-.077.716-.23.171-.152.293-.392.366-.719h.864c-.17 1.156-.82 1.734-1.946 1.734-.639 0-1.133-.202-1.483-.606-.35-.405-.525-1.006-.525-1.805v-.684c0-.798.174-1.4.525-1.804.35-.405.844-.607 1.483-.607zm85.847.07v.786h-2.39v1.415h2.156v.778h-2.156v1.61h2.39v.777h-3.293v-5.366h3.293zm-79.806 0c.633 0 1.12.137 1.463.412.343.275.515.672.515 1.19 0 .726-.325 1.206-.974 1.44l1.145 2.324h-.997l-1.035-2.177h-1.043v2.177H81.5v-5.366zm59.93 0c.634 0 1.121.137 1.464.412.342.275.514.672.514 1.19 0 .726-.324 1.206-.973 1.44l1.144 2.324h-.996l-1.036-2.177h-1.043v2.177h-.903v-5.366zm-83.683 0v.786h-2.39v1.415h2.156v.778h-2.156v1.61h2.39v.777h-3.293v-5.366h3.293zm3.138 0l1.55 3.11 1.549-3.11h.863v5.366h-.872v-3.593l-1.23 2.559h-.638L62.73 72.26v3.569h-.872v-5.366h.856zm69.802 0v.786h-2.39v1.415h2.156v.778h-2.156v1.61h2.39v.777h-3.293v-5.366h3.293zm-11.032 0c.634 0 1.121.137 1.464.412.342.275.514.672.514 1.19 0 .726-.325 1.206-.973 1.44l1.144 2.324h-.996l-1.036-2.177h-1.043v2.177h-.903v-5.366zm-69.615 0c1.344 0 2.016.788 2.016 2.364v.638c0 1.576-.672 2.364-2.016 2.364h-1.814v-5.366zm59.51 0v.786h-2.39v1.54h2.156v.777h-2.156v2.263h-.903v-5.366h3.293zm-14.644 0v.786h-1.541v4.58h-.903v-4.58h-1.55v-.786h3.994zm-6.897 0l1.868 5.366h-.957l-.366-1.112h-1.939l-.366 1.112h-.965l1.868-5.366h.857zm65.816 0c.627 0 1.114.147 1.459.44.345.292.518.711.518 1.255 0 .545-.174.966-.521 1.264-.348.299-.834.448-1.456.448h-.927v1.959h-.903v-5.366zm-6.245.715c-.373 0-.65.132-.832.393-.182.262-.273.673-.273 1.233v.684c0 .56.091.972.273 1.233.181.262.46.393.832.393.375 0 .653-.131.838-.393.184-.261.276-.673.276-1.233v-.684c0-.56-.092-.97-.276-1.233-.185-.261-.463-.393-.838-.393zm-34.168 0c-.374 0-.652.132-.833.393-.182.262-.273.673-.273 1.233v.684c0 .56.091.972.273 1.233.181.262.459.393.833.393.373 0 .652-.131.837-.393.184-.261.276-.673.276-1.233v-.684c0-.56-.092-.97-.276-1.233-.185-.261-.464-.393-.837-.393zm-44.158 0c-.373 0-.651.132-.833.393-.182.262-.273.673-.273 1.233v.684c0 .56.091.972.273 1.233.182.262.46.393.833.393.374 0 .653-.131.837-.393.184-.261.277-.673.277-1.233v-.684c0-.56-.093-.97-.277-1.233-.184-.261-.463-.393-.837-.393zm-19.214.07h-.91v3.804h.91c.384 0 .666-.128.845-.381.179-.255.268-.656.268-1.206v-.638c0-.55-.09-.95-.268-1.201-.18-.252-.46-.378-.845-.378zm37.54.522l-.716 2.17h1.432l-.715-2.17zm66.151-.521h-.833v1.843h.833c.778 0 1.168-.311 1.168-.934 0-.606-.39-.91-1.168-.91zm-72.293 0h-.864v1.625h.864c.4 0 .689-.063.868-.187.179-.124.268-.332.268-.622s-.09-.499-.268-.626c-.18-.127-.469-.19-.868-.19zm38.155 0h-.864v1.625h.864c.4 0 .69-.063.868-.187.18-.124.269-.332.269-.622s-.09-.499-.269-.626c-.179-.127-.468-.19-.868-.19zm21.775 0h-.864v1.625h.864c.4 0 .69-.063.868-.187.18-.124.269-.332.269-.622s-.09-.499-.269-.626c-.179-.127-.468-.19-.868-.19zm31.739-8.716c1.32 0 1.98.774 1.98 2.322v.626c0 1.548-.66 2.322-1.98 2.322h-1.782v-5.27zm-21.906-.324c.84 0 1.453.293 1.837.879l-.685.49c-.15-.208-.313-.356-.487-.447-.174-.091-.398-.137-.673-.137-.28 0-.497.062-.65.183-.153.122-.23.295-.23.518 0 .238.089.42.265.548.176.127.472.237.887.33.582.13 1 .315 1.258.556.256.241.385.59.385 1.046 0 .436-.153.801-.46 1.097-.306.295-.762.443-1.37.443-.903 0-1.572-.293-2.008-.879l.708-.49c.177.208.358.357.545.448.187.09.423.136.709.136.649 0 .973-.239.973-.716 0-.228-.087-.41-.26-.548-.175-.138-.48-.253-.916-.346-1.08-.223-1.62-.765-1.62-1.625 0-.452.154-.812.46-1.081.307-.27.75-.405 1.332-.405zm-53.267 0c.64 0 1.135.202 1.487.606.353.405.53 1.006.53 1.805v.684c0 .799-.177 1.4-.53 1.804-.352.405-.848.607-1.487.607-.638 0-1.132-.202-1.482-.607-.351-.404-.526-1.005-.526-1.804v-.684c0-.799.175-1.4.526-1.805.35-.404.844-.606 1.482-.606zm-14.955 0c.545 0 .985.147 1.32.44.334.292.546.724.634 1.294h-.872c-.135-.632-.495-.949-1.082-.949-.374 0-.652.132-.833.393-.182.262-.273.673-.273 1.233v.684c0 1.084.37 1.625 1.106 1.625.306 0 .545-.076.716-.229.171-.152.294-.392.366-.719h.864c-.171 1.156-.82 1.734-1.946 1.734-.639 0-1.133-.202-1.483-.606-.35-.405-.526-1.006-.526-1.805v-.684c0-.799.176-1.4.526-1.804.35-.405.844-.607 1.483-.607zm62.134.07v4.588h2.39v.778h-3.294V62.28h.904zm20.56 0l2.211 3.694V62.28h.872v5.366h-.802l-2.187-3.647v3.647h-.872V62.28h.778zm-105.139 0v4.588h2.39v.778H61.46V62.28h.903zm51.608 0v4.588h2.39v.778h-3.293V62.28h.903zm21.643 0c.633 0 1.121.137 1.464.412.342.275.514.672.514 1.19 0 .726-.325 1.206-.974 1.439l1.145 2.325h-.996l-1.036-2.177h-1.043v2.177h-.903V62.28zm-62.99 0l1.869 5.366h-.958l-.366-1.112H71.23l-.365 1.112h-.966l1.87-5.366h.855zm34.839 0v.786h-2.39v1.54h2.156v.777h-2.156v2.263h-.903V62.28h3.293zm34.66 0l1.868 5.366h-.958l-.365-1.112h-1.94l-.365 1.112h-.965l1.869-5.366h.856zm-10.627 0v.786h-2.39v1.415h2.156v.778h-2.156v1.61h2.39v.777h-3.293V62.28h3.293zm-12.098 0v5.366h-.903V62.28h.903zm-42.08 0l2.212 3.694V62.28h.872v5.366H79.6l-2.188-3.647v3.647h-.872V62.28h.779zm14.987 0v.786h-2.39v1.415h2.157v.778h-2.157v1.61h2.39v.777h-3.293V62.28h3.293zm-35.282 0v4.588h2.39v.778H56.12V62.28h.903zm66.789 0c1.272 0 1.907.464 1.907 1.392 0 .275-.071.516-.214.723-.143.208-.333.356-.572.443.638.182.958.605.958 1.268 0 .446-.156.814-.467 1.105-.307.29-.787.435-1.441.435h-1.9V62.28zm38.996 0l1.868 5.366h-.957l-.366-1.112h-1.939l-.366 1.112h-.965l1.869-5.366h.856zm-110.604 0l1.868 5.366h-.957l-.366-1.112H50.81l-.366 1.112h-.965l1.869-5.366h.856zm15.586 0v5.366h-.903V62.28h.903zm107.146 1.026h-.895v3.734h.895c.377 0 .653-.124.829-.374.176-.25.264-.644.264-1.184v-.626c0-.54-.088-.933-.264-1.18-.176-.247-.452-.37-.83-.37zm-75.173-.31c-.373 0-.65.13-.833.393-.182.26-.272.672-.272 1.232v.684c0 .56.09.971.272 1.233.182.262.46.393.833.393.374 0 .653-.131.837-.393.185-.262.277-.673.277-1.233v-.684c0-.56-.092-.971-.277-1.232-.184-.262-.463-.393-.837-.393zm24.057 2.255h-.834v1.617h.943c.705 0 1.058-.27 1.058-.808 0-.28-.095-.485-.284-.615-.19-.13-.484-.194-.883-.194zm-51.624-1.665l-.716 2.17h1.432l-.716-2.17zm-20.42 0l-.717 2.17h1.433l-.716-2.17zm89.918 0l-.716 2.17h1.433l-.717-2.17zm20.686 0l-.717 2.17h1.433l-.716-2.17zm-26.828-.52h-.864v1.625h.864c.4 0 .689-.062.868-.187.18-.124.269-.331.269-.622 0-.29-.09-.499-.27-.626-.178-.127-.467-.19-.867-.19zm-11.802-.008h-.764v1.415h.88c.634 0 .95-.248.95-.746 0-.239-.08-.41-.237-.514-.159-.103-.435-.155-.83-.155zM193.36 70.198c.548-.548.684-1.351.407-2.025-.09-.227-.227-.44-.413-.624-.026-.027-.056-.052-.085-.077l-5.195-5.19c-.729-.729-1.908-.727-2.636 0-.73.726-.73 1.905 0 2.633l3.959 3.955-3.966 3.961c-.727.728-.727 1.906 0 2.634.728.726 1.908.726 2.637 0l5.13-5.124c.055-.045.11-.092.163-.143" transform="translate(-1)"/>
        <path fill="#FEFEFE" d="M201.43 68.173c-.091-.227-.228-.44-.413-.624-.027-.027-.056-.052-.086-.078l-5.196-5.19c-.727-.728-1.907-.726-2.636 0-.728.727-.728 1.906 0 2.634l3.959 3.955-3.964 3.96c-.729.729-.729 1.907 0 2.635.729.726 1.907.726 2.636 0l5.13-5.125c.056-.044.11-.091.162-.142.548-.548.684-1.351.408-2.025M156.518 0c1.047 0 1.858.245 2.434.733.575.488.863 1.186.863 2.094 0 .907-.29 1.61-.87 2.107-.58.497-1.388.746-2.427.746h-1.544v3.267h-1.506V0zm8.177 0l3.116 8.947h-1.597l-.61-1.854h-3.232l-.61 1.854h-1.61L163.268 0h1.427zm7.827 0c1.056 0 1.87.23 2.44.688.571.458.857 1.119.857 1.983 0 1.21-.54 2.01-1.623 2.399l1.908 3.877h-1.661l-1.726-3.63h-1.74v3.63h-1.505V0zm11.293 0v1.31h-2.57v7.637h-1.506V1.31h-2.583V0h6.659zm2.634 0l1.792 3.579L190.044 0h1.74l-2.791 5.213v3.734h-1.505V5.213L184.698 0h1.751zm-22.467 2.178l-1.195 3.618h2.389l-1.194-3.618zm-7.62-.868h-1.388v3.073h1.389c1.298 0 1.947-.519 1.947-1.556 0-1.011-.65-1.517-1.947-1.517zm16.056 0h-1.44v2.71h1.44c.667 0 1.149-.104 1.448-.311.298-.208.447-.553.447-1.038 0-.484-.149-.831-.447-1.043-.3-.212-.781-.318-1.448-.318zM147.09 1.47v6.394c0 .187.175.34.39.34.215 0 .39-.153.39-.34V1.47c0-.187-.175-.339-.39-.339-.215 0-.39.152-.39.34" transform="translate(-1)"/>
    </g>
</svg>
