<svg xmlns="http://www.w3.org/2000/svg" xmlns:xlink="http://www.w3.org/1999/xlink" width="500" zoomAndPan="magnify" viewBox="0 0 375 374.999991" height="500" preserveAspectRatio="xMidYMid meet" version="1.0"><defs><linearGradient x1="0" gradientTransform="matrix(0.75, 0, 0, 0.75, 0.0000045, 0)" y1="0" x2="499.999979" gradientUnits="userSpaceOnUse" y2="0" id="54028e991c"><stop stop-opacity="1" stop-color="rgb(0%, 0%, 0%)" offset="0"/><stop stop-opacity="1" stop-color="rgb(0.0808716%, 0.0778198%, 0.312805%)" offset="0.00390625"/><stop stop-opacity="1" stop-color="rgb(0.161743%, 0.15564%, 0.627136%)" offset="0.0078125"/><stop stop-opacity="1" stop-color="rgb(0.242615%, 0.233459%, 0.941467%)" offset="0.0117187"/><stop stop-opacity="1" stop-color="rgb(0.323486%, 0.311279%, 1.255798%)" offset="0.015625"/><stop stop-opacity="1" stop-color="rgb(0.404358%, 0.389099%, 1.568604%)" offset="0.0195312"/><stop stop-opacity="1" stop-color="rgb(0.486755%, 0.468445%, 1.882935%)" offset="0.0234375"/><stop stop-opacity="1" stop-color="rgb(0.567627%, 0.546265%, 2.197266%)" offset="0.0273438"/><stop stop-opacity="1" stop-color="rgb(0.648499%, 0.624084%, 2.511597%)" offset="0.03125"/><stop stop-opacity="1" stop-color="rgb(0.72937%, 0.701904%, 2.825928%)" offset="0.0351562"/><stop stop-opacity="1" stop-color="rgb(0.811768%, 0.779724%, 3.140259%)" offset="0.0390625"/><stop stop-opacity="1" stop-color="rgb(0.892639%, 0.857544%, 3.453064%)" offset="0.0429687"/><stop stop-opacity="1" stop-color="rgb(0.973511%, 0.93689%, 3.767395%)" offset="0.046875"/><stop stop-opacity="1" stop-color="rgb(1.054382%, 1.014709%, 4.081726%)" offset="0.0507812"/><stop stop-opacity="1" stop-color="rgb(1.13678%, 1.092529%, 4.396057%)" offset="0.0546875"/><stop stop-opacity="1" stop-color="rgb(1.217651%, 1.170349%, 4.710388%)" offset="0.0585938"/><stop stop-opacity="1" stop-color="rgb(1.298523%, 1.249695%, 5.024719%)" offset="0.0625"/><stop stop-opacity="1" stop-color="rgb(1.379395%, 1.327515%, 5.337524%)" offset="0.0664062"/><stop stop-opacity="1" stop-color="rgb(1.461792%, 1.405334%, 5.651855%)" offset="0.0703125"/><stop stop-opacity="1" stop-color="rgb(1.542664%, 1.483154%, 5.966187%)" offset="0.0742187"/><stop stop-opacity="1" stop-color="rgb(1.623535%, 1.560974%, 6.280518%)" offset="0.078125"/><stop stop-opacity="1" stop-color="rgb(1.704407%, 1.638794%, 6.594849%)" offset="0.0820312"/><stop stop-opacity="1" stop-color="rgb(1.786804%, 1.71814%, 6.90918%)" offset="0.0859375"/><stop stop-opacity="1" stop-color="rgb(1.867676%, 1.795959%, 7.221985%)" offset="0.0898437"/><stop stop-opacity="1" stop-color="rgb(1.948547%, 1.873779%, 7.536316%)" offset="0.09375"/><stop stop-opacity="1" stop-color="rgb(2.029419%, 1.951599%, 7.850647%)" offset="0.0976562"/><stop stop-opacity="1" stop-color="rgb(2.111816%, 2.030945%, 8.164978%)" offset="0.101562"/><stop stop-opacity="1" stop-color="rgb(2.192688%, 2.108765%, 8.479309%)" offset="0.105469"/><stop stop-opacity="1" stop-color="rgb(2.27356%, 2.186584%, 8.79364%)" offset="0.109375"/><stop stop-opacity="1" stop-color="rgb(2.354431%, 2.264404%, 9.106445%)" offset="0.113281"/><stop stop-opacity="1" stop-color="rgb(2.436829%, 2.342224%, 9.420776%)" offset="0.117188"/><stop stop-opacity="1" stop-color="rgb(2.5177%, 2.420044%, 9.735107%)" offset="0.121094"/><stop stop-opacity="1" stop-color="rgb(2.598572%, 2.49939%, 10.049438%)" offset="0.125"/><stop stop-opacity="1" stop-color="rgb(2.679443%, 2.577209%, 10.36377%)" offset="0.128906"/><stop stop-opacity="1" stop-color="rgb(2.761841%, 2.655029%, 10.678101%)" offset="0.132812"/><stop stop-opacity="1" stop-color="rgb(2.842712%, 2.732849%, 10.990906%)" offset="0.136719"/><stop stop-opacity="1" stop-color="rgb(2.923584%, 2.812195%, 11.305237%)" offset="0.140625"/><stop stop-opacity="1" stop-color="rgb(3.004456%, 2.890015%, 11.619568%)" offset="0.144531"/><stop stop-opacity="1" stop-color="rgb(3.086853%, 2.967834%, 11.933899%)" offset="0.148437"/><stop stop-opacity="1" stop-color="rgb(3.167725%, 3.045654%, 12.246704%)" offset="0.152344"/><stop stop-opacity="1" stop-color="rgb(3.248596%, 3.123474%, 12.561035%)" offset="0.15625"/><stop stop-opacity="1" stop-color="rgb(3.329468%, 3.201294%, 12.875366%)" offset="0.160156"/><stop stop-opacity="1" stop-color="rgb(3.411865%, 3.28064%, 13.189697%)" offset="0.164062"/><stop stop-opacity="1" stop-color="rgb(3.492737%, 3.358459%, 13.504028%)" offset="0.167969"/><stop stop-opacity="1" stop-color="rgb(3.573608%, 3.436279%, 13.818359%)" offset="0.171875"/><stop stop-opacity="1" stop-color="rgb(3.65448%, 3.514099%, 14.131165%)" offset="0.175781"/><stop stop-opacity="1" stop-color="rgb(3.736877%, 3.593445%, 14.445496%)" offset="0.179687"/><stop stop-opacity="1" stop-color="rgb(3.817749%, 3.671265%, 14.759827%)" offset="0.183594"/><stop stop-opacity="1" stop-color="rgb(3.898621%, 3.749084%, 15.074158%)" offset="0.1875"/><stop stop-opacity="1" stop-color="rgb(3.979492%, 3.826904%, 15.388489%)" offset="0.191406"/><stop stop-opacity="1" stop-color="rgb(4.06189%, 3.904724%, 15.70282%)" offset="0.195312"/><stop stop-opacity="1" stop-color="rgb(4.142761%, 3.982544%, 16.015625%)" offset="0.199219"/><stop stop-opacity="1" stop-color="rgb(4.223633%, 4.06189%, 16.329956%)" offset="0.203125"/><stop stop-opacity="1" stop-color="rgb(4.304504%, 4.139709%, 16.644287%)" offset="0.207031"/><stop stop-opacity="1" stop-color="rgb(4.386902%, 4.217529%, 16.958618%)" offset="0.210938"/><stop stop-opacity="1" stop-color="rgb(4.467773%, 4.295349%, 17.272949%)" offset="0.214844"/><stop stop-opacity="1" stop-color="rgb(4.548645%, 4.374695%, 17.58728%)" offset="0.21875"/><stop stop-opacity="1" stop-color="rgb(4.629517%, 4.452515%, 17.900085%)" offset="0.222656"/><stop stop-opacity="1" stop-color="rgb(4.711914%, 4.530334%, 18.214417%)" offset="0.226562"/><stop stop-opacity="1" stop-color="rgb(4.792786%, 4.608154%, 18.528748%)" offset="0.230469"/><stop stop-opacity="1" stop-color="rgb(4.873657%, 4.685974%, 18.843079%)" offset="0.234375"/><stop stop-opacity="1" stop-color="rgb(4.954529%, 4.763794%, 19.15741%)" offset="0.238281"/><stop stop-opacity="1" stop-color="rgb(5.036926%, 4.84314%, 19.471741%)" offset="0.242188"/><stop stop-opacity="1" stop-color="rgb(5.117798%, 4.920959%, 19.784546%)" offset="0.246094"/><stop stop-opacity="1" stop-color="rgb(5.198669%, 4.998779%, 20.098877%)" offset="0.25"/><stop stop-opacity="1" stop-color="rgb(5.279541%, 5.076599%, 20.413208%)" offset="0.253906"/><stop stop-opacity="1" stop-color="rgb(5.361938%, 5.155945%, 20.727539%)" offset="0.257812"/><stop stop-opacity="1" stop-color="rgb(5.44281%, 5.233765%, 21.04187%)" offset="0.261719"/><stop stop-opacity="1" stop-color="rgb(5.523682%, 5.311584%, 21.356201%)" offset="0.265625"/><stop stop-opacity="1" stop-color="rgb(5.604553%, 5.389404%, 21.669006%)" offset="0.269531"/><stop stop-opacity="1" stop-color="rgb(5.686951%, 5.467224%, 21.983337%)" offset="0.273437"/><stop stop-opacity="1" stop-color="rgb(5.767822%, 5.545044%, 22.297668%)" offset="0.277344"/><stop stop-opacity="1" stop-color="rgb(5.848694%, 5.62439%, 22.612%)" offset="0.28125"/><stop stop-opacity="1" stop-color="rgb(5.929565%, 5.702209%, 22.924805%)" offset="0.285156"/><stop stop-opacity="1" stop-color="rgb(6.011963%, 5.780029%, 23.239136%)" offset="0.289062"/><stop stop-opacity="1" stop-color="rgb(6.092834%, 5.857849%, 23.553467%)" offset="0.292969"/><stop stop-opacity="1" stop-color="rgb(6.173706%, 5.937195%, 23.867798%)" offset="0.296875"/><stop stop-opacity="1" stop-color="rgb(6.254578%, 6.015015%, 24.182129%)" offset="0.300781"/><stop stop-opacity="1" stop-color="rgb(6.336975%, 6.092834%, 24.49646%)" offset="0.304687"/><stop stop-opacity="1" stop-color="rgb(6.417847%, 6.170654%, 24.809265%)" offset="0.308594"/><stop stop-opacity="1" stop-color="rgb(6.498718%, 6.248474%, 25.123596%)" offset="0.3125"/><stop stop-opacity="1" stop-color="rgb(6.57959%, 6.326294%, 25.437927%)" offset="0.316406"/><stop stop-opacity="1" stop-color="rgb(6.661987%, 6.40564%, 25.752258%)" offset="0.320312"/><stop stop-opacity="1" stop-color="rgb(6.742859%, 6.483459%, 26.066589%)" offset="0.324219"/><stop stop-opacity="1" stop-color="rgb(6.82373%, 6.561279%, 26.38092%)" offset="0.328125"/><stop stop-opacity="1" stop-color="rgb(6.904602%, 6.639099%, 26.693726%)" offset="0.332031"/><stop stop-opacity="1" stop-color="rgb(6.987%, 6.718445%, 27.008057%)" offset="0.335937"/><stop stop-opacity="1" stop-color="rgb(7.067871%, 6.796265%, 27.322388%)" offset="0.339844"/><stop stop-opacity="1" stop-color="rgb(7.148743%, 6.874084%, 27.636719%)" offset="0.34375"/><stop stop-opacity="1" stop-color="rgb(7.229614%, 6.951904%, 27.95105%)" offset="0.347656"/><stop stop-opacity="1" stop-color="rgb(7.312012%, 7.029724%, 28.265381%)" offset="0.351562"/><stop stop-opacity="1" stop-color="rgb(7.392883%, 7.107544%, 28.578186%)" offset="0.355469"/><stop stop-opacity="1" stop-color="rgb(7.473755%, 7.18689%, 28.892517%)" offset="0.359375"/><stop stop-opacity="1" stop-color="rgb(7.554626%, 7.264709%, 29.206848%)" offset="0.363281"/><stop stop-opacity="1" stop-color="rgb(7.637024%, 7.342529%, 29.521179%)" offset="0.367187"/><stop stop-opacity="1" stop-color="rgb(7.717896%, 7.420349%, 29.83551%)" offset="0.371094"/><stop stop-opacity="1" stop-color="rgb(7.798767%, 7.499695%, 30.149841%)" offset="0.375"/><stop stop-opacity="1" stop-color="rgb(7.879639%, 7.577515%, 30.462646%)" offset="0.378906"/><stop stop-opacity="1" stop-color="rgb(7.962036%, 7.655334%, 30.776978%)" offset="0.382812"/><stop stop-opacity="1" stop-color="rgb(8.042908%, 7.733154%, 31.091309%)" offset="0.386719"/><stop stop-opacity="1" stop-color="rgb(8.123779%, 7.810974%, 31.40564%)" offset="0.390625"/><stop stop-opacity="1" stop-color="rgb(8.204651%, 7.888794%, 31.719971%)" offset="0.394531"/><stop stop-opacity="1" stop-color="rgb(8.287048%, 7.96814%, 32.034302%)" offset="0.398438"/><stop stop-opacity="1" stop-color="rgb(8.36792%, 8.045959%, 32.347107%)" offset="0.402344"/><stop stop-opacity="1" stop-color="rgb(8.448792%, 8.123779%, 32.661438%)" offset="0.40625"/><stop stop-opacity="1" stop-color="rgb(8.529663%, 8.201599%, 32.975769%)" offset="0.410156"/><stop stop-opacity="1" stop-color="rgb(8.612061%, 8.280945%, 33.2901%)" offset="0.414062"/><stop stop-opacity="1" stop-color="rgb(8.692932%, 8.358765%, 33.602905%)" offset="0.417969"/><stop stop-opacity="1" stop-color="rgb(8.773804%, 8.436584%, 33.917236%)" offset="0.421875"/><stop stop-opacity="1" stop-color="rgb(8.854675%, 8.514404%, 34.231567%)" offset="0.425781"/><stop stop-opacity="1" stop-color="rgb(8.937073%, 8.592224%, 34.545898%)" offset="0.429688"/><stop stop-opacity="1" stop-color="rgb(9.017944%, 8.670044%, 34.860229%)" offset="0.433594"/><stop stop-opacity="1" stop-color="rgb(9.098816%, 8.74939%, 35.174561%)" offset="0.4375"/><stop stop-opacity="1" stop-color="rgb(9.179688%, 8.827209%, 35.487366%)" offset="0.441406"/><stop stop-opacity="1" stop-color="rgb(9.262085%, 8.905029%, 35.801697%)" offset="0.445312"/><stop stop-opacity="1" stop-color="rgb(9.342957%, 8.982849%, 36.116028%)" offset="0.449219"/><stop stop-opacity="1" stop-color="rgb(9.423828%, 9.062195%, 36.430359%)" offset="0.453125"/><stop stop-opacity="1" stop-color="rgb(9.5047%, 9.140015%, 36.74469%)" offset="0.457031"/><stop stop-opacity="1" stop-color="rgb(9.587097%, 9.217834%, 37.059021%)" offset="0.460938"/><stop stop-opacity="1" stop-color="rgb(9.667969%, 9.295654%, 37.371826%)" offset="0.464844"/><stop stop-opacity="1" stop-color="rgb(9.74884%, 9.373474%, 37.686157%)" offset="0.46875"/><stop stop-opacity="1" stop-color="rgb(9.829712%, 9.451294%, 38.000488%)" offset="0.472656"/><stop stop-opacity="1" stop-color="rgb(9.912109%, 9.53064%, 38.314819%)" offset="0.476562"/><stop stop-opacity="1" stop-color="rgb(9.992981%, 9.608459%, 38.62915%)" offset="0.480469"/><stop stop-opacity="1" stop-color="rgb(10.073853%, 9.686279%, 38.943481%)" offset="0.484375"/><stop stop-opacity="1" stop-color="rgb(10.154724%, 9.764099%, 39.256287%)" offset="0.488281"/><stop stop-opacity="1" stop-color="rgb(10.237122%, 9.843445%, 39.570618%)" offset="0.492188"/><stop stop-opacity="1" stop-color="rgb(10.317993%, 9.921265%, 39.884949%)" offset="0.496094"/><stop stop-opacity="1" stop-color="rgb(10.398865%, 9.999084%, 40.19928%)" offset="0.5"/><stop stop-opacity="1" stop-color="rgb(10.479736%, 10.076904%, 40.513611%)" offset="0.503906"/><stop stop-opacity="1" stop-color="rgb(10.562134%, 10.154724%, 40.827942%)" offset="0.507812"/><stop stop-opacity="1" stop-color="rgb(10.643005%, 10.232544%, 41.140747%)" offset="0.511719"/><stop stop-opacity="1" stop-color="rgb(10.723877%, 10.31189%, 41.455078%)" offset="0.515625"/><stop stop-opacity="1" stop-color="rgb(10.804749%, 10.389709%, 41.769409%)" offset="0.519531"/><stop stop-opacity="1" stop-color="rgb(10.887146%, 10.467529%, 42.08374%)" offset="0.523437"/><stop stop-opacity="1" stop-color="rgb(10.968018%, 10.545349%, 42.398071%)" offset="0.527344"/><stop stop-opacity="1" stop-color="rgb(11.048889%, 10.624695%, 42.712402%)" offset="0.53125"/><stop stop-opacity="1" stop-color="rgb(11.129761%, 10.702515%, 43.025208%)" offset="0.535156"/><stop stop-opacity="1" stop-color="rgb(11.212158%, 10.780334%, 43.339539%)" offset="0.539062"/><stop stop-opacity="1" stop-color="rgb(11.29303%, 10.858154%, 43.65387%)" offset="0.542969"/><stop stop-opacity="1" stop-color="rgb(11.373901%, 10.935974%, 43.968201%)" offset="0.546875"/><stop stop-opacity="1" stop-color="rgb(11.454773%, 11.013794%, 44.282532%)" offset="0.550781"/><stop stop-opacity="1" stop-color="rgb(11.53717%, 11.09314%, 44.596863%)" offset="0.554687"/><stop stop-opacity="1" stop-color="rgb(11.618042%, 11.170959%, 44.909668%)" offset="0.558594"/><stop stop-opacity="1" stop-color="rgb(11.698914%, 11.248779%, 45.223999%)" offset="0.5625"/><stop stop-opacity="1" stop-color="rgb(11.779785%, 11.326599%, 45.53833%)" offset="0.566406"/><stop stop-opacity="1" stop-color="rgb(11.862183%, 11.405945%, 45.852661%)" offset="0.570312"/><stop stop-opacity="1" stop-color="rgb(11.943054%, 11.483765%, 46.165466%)" offset="0.574219"/><stop stop-opacity="1" stop-color="rgb(12.023926%, 11.561584%, 46.479797%)" offset="0.578125"/><stop stop-opacity="1" stop-color="rgb(12.104797%, 11.639404%, 46.794128%)" offset="0.582031"/><stop stop-opacity="1" stop-color="rgb(12.187195%, 11.717224%, 47.108459%)" offset="0.585937"/><stop stop-opacity="1" stop-color="rgb(12.268066%, 11.795044%, 47.422791%)" offset="0.589844"/><stop stop-opacity="1" stop-color="rgb(12.348938%, 11.87439%, 47.737122%)" offset="0.59375"/><stop stop-opacity="1" stop-color="rgb(12.42981%, 11.952209%, 48.049927%)" offset="0.597656"/><stop stop-opacity="1" stop-color="rgb(12.512207%, 12.030029%, 48.364258%)" offset="0.601562"/><stop stop-opacity="1" stop-color="rgb(12.593079%, 12.107849%, 48.678589%)" offset="0.605469"/><stop stop-opacity="1" stop-color="rgb(12.67395%, 12.187195%, 48.99292%)" offset="0.609375"/><stop stop-opacity="1" stop-color="rgb(12.754822%, 12.265015%, 49.307251%)" offset="0.613281"/><stop stop-opacity="1" stop-color="rgb(12.837219%, 12.342834%, 49.621582%)" offset="0.617187"/><stop stop-opacity="1" stop-color="rgb(12.918091%, 12.420654%, 49.934387%)" offset="0.621094"/><stop stop-opacity="1" stop-color="rgb(12.998962%, 12.498474%, 50.248718%)" offset="0.625"/><stop stop-opacity="1" stop-color="rgb(13.079834%, 12.576294%, 50.563049%)" offset="0.628906"/><stop stop-opacity="1" stop-color="rgb(13.162231%, 12.65564%, 50.87738%)" offset="0.632812"/><stop stop-opacity="1" stop-color="rgb(13.243103%, 12.733459%, 51.191711%)" offset="0.636719"/><stop stop-opacity="1" stop-color="rgb(13.323975%, 12.811279%, 51.506042%)" offset="0.640625"/><stop stop-opacity="1" stop-color="rgb(13.404846%, 12.889099%, 51.818848%)" offset="0.644531"/><stop stop-opacity="1" stop-color="rgb(13.487244%, 12.968445%, 52.133179%)" offset="0.648437"/><stop stop-opacity="1" stop-color="rgb(13.568115%, 13.046265%, 52.44751%)" offset="0.652344"/><stop stop-opacity="1" stop-color="rgb(13.648987%, 13.124084%, 52.761841%)" offset="0.65625"/><stop stop-opacity="1" stop-color="rgb(13.729858%, 13.201904%, 53.076172%)" offset="0.660156"/><stop stop-opacity="1" stop-color="rgb(13.812256%, 13.279724%, 53.390503%)" offset="0.664062"/><stop stop-opacity="1" stop-color="rgb(13.893127%, 13.357544%, 53.703308%)" offset="0.667969"/><stop stop-opacity="1" stop-color="rgb(13.973999%, 13.43689%, 54.017639%)" offset="0.671875"/><stop stop-opacity="1" stop-color="rgb(14.054871%, 13.514709%, 54.33197%)" offset="0.675781"/><stop stop-opacity="1" stop-color="rgb(14.137268%, 13.592529%, 54.646301%)" offset="0.679687"/><stop stop-opacity="1" stop-color="rgb(14.21814%, 13.670349%, 54.960632%)" offset="0.683594"/><stop stop-opacity="1" stop-color="rgb(14.299011%, 13.749695%, 55.274963%)" offset="0.6875"/><stop stop-opacity="1" stop-color="rgb(14.379883%, 13.827515%, 55.587769%)" offset="0.691406"/><stop stop-opacity="1" stop-color="rgb(14.46228%, 13.905334%, 55.9021%)" offset="0.695312"/><stop stop-opacity="1" stop-color="rgb(14.543152%, 13.983154%, 56.216431%)" offset="0.699219"/><stop stop-opacity="1" stop-color="rgb(14.624023%, 14.060974%, 56.530762%)" offset="0.703125"/><stop stop-opacity="1" stop-color="rgb(14.704895%, 14.138794%, 56.843567%)" offset="0.707031"/><stop stop-opacity="1" stop-color="rgb(14.787292%, 14.21814%, 57.157898%)" offset="0.710937"/><stop stop-opacity="1" stop-color="rgb(14.868164%, 14.295959%, 57.472229%)" offset="0.714844"/><stop stop-opacity="1" stop-color="rgb(14.949036%, 14.373779%, 57.78656%)" offset="0.71875"/><stop stop-opacity="1" stop-color="rgb(15.029907%, 14.451599%, 58.100891%)" offset="0.722656"/><stop stop-opacity="1" stop-color="rgb(15.112305%, 14.530945%, 58.415222%)" offset="0.726562"/><stop stop-opacity="1" stop-color="rgb(15.193176%, 14.608765%, 58.728027%)" offset="0.730469"/><stop stop-opacity="1" stop-color="rgb(15.274048%, 14.686584%, 59.042358%)" offset="0.734375"/><stop stop-opacity="1" stop-color="rgb(15.354919%, 14.764404%, 59.356689%)" offset="0.738281"/><stop stop-opacity="1" stop-color="rgb(15.437317%, 14.842224%, 59.671021%)" offset="0.742187"/><stop stop-opacity="1" stop-color="rgb(15.518188%, 14.920044%, 59.985352%)" offset="0.746094"/><stop stop-opacity="1" stop-color="rgb(15.59906%, 14.99939%, 60.299683%)" offset="0.75"/><stop stop-opacity="1" stop-color="rgb(15.679932%, 15.077209%, 60.612488%)" offset="0.753906"/><stop stop-opacity="1" stop-color="rgb(15.762329%, 15.155029%, 60.926819%)" offset="0.757812"/><stop stop-opacity="1" stop-color="rgb(15.843201%, 15.232849%, 61.24115%)" offset="0.761719"/><stop stop-opacity="1" stop-color="rgb(15.924072%, 15.312195%, 61.555481%)" offset="0.765625"/><stop stop-opacity="1" stop-color="rgb(16.004944%, 15.390015%, 61.869812%)" offset="0.769531"/><stop stop-opacity="1" stop-color="rgb(16.087341%, 15.467834%, 62.184143%)" offset="0.773438"/><stop stop-opacity="1" stop-color="rgb(16.168213%, 15.545654%, 62.496948%)" offset="0.777344"/><stop stop-opacity="1" stop-color="rgb(16.249084%, 15.623474%, 62.811279%)" offset="0.78125"/><stop stop-opacity="1" stop-color="rgb(16.329956%, 15.701294%, 63.12561%)" offset="0.785156"/><stop stop-opacity="1" stop-color="rgb(16.412354%, 15.78064%, 63.439941%)" offset="0.789062"/><stop stop-opacity="1" stop-color="rgb(16.493225%, 15.858459%, 63.754272%)" offset="0.792969"/><stop stop-opacity="1" stop-color="rgb(16.574097%, 15.936279%, 64.068604%)" offset="0.796875"/><stop stop-opacity="1" stop-color="rgb(16.654968%, 16.014099%, 64.381409%)" offset="0.800781"/><stop stop-opacity="1" stop-color="rgb(16.737366%, 16.093445%, 64.69574%)" offset="0.804688"/><stop stop-opacity="1" stop-color="rgb(16.818237%, 16.171265%, 65.010071%)" offset="0.808594"/><stop stop-opacity="1" stop-color="rgb(16.899109%, 16.249084%, 65.324402%)" offset="0.8125"/><stop stop-opacity="1" stop-color="rgb(16.97998%, 16.326904%, 65.638733%)" offset="0.816406"/><stop stop-opacity="1" stop-color="rgb(17.062378%, 16.404724%, 65.953064%)" offset="0.820312"/><stop stop-opacity="1" stop-color="rgb(17.14325%, 16.482544%, 66.265869%)" offset="0.824219"/><stop stop-opacity="1" stop-color="rgb(17.224121%, 16.56189%, 66.5802%)" offset="0.828125"/><stop stop-opacity="1" stop-color="rgb(17.304993%, 16.639709%, 66.894531%)" offset="0.832031"/><stop stop-opacity="1" stop-color="rgb(17.38739%, 16.717529%, 67.208862%)" offset="0.835938"/><stop stop-opacity="1" stop-color="rgb(17.468262%, 16.795349%, 67.521667%)" offset="0.839844"/><stop stop-opacity="1" stop-color="rgb(17.549133%, 16.874695%, 67.835999%)" offset="0.84375"/><stop stop-opacity="1" stop-color="rgb(17.630005%, 16.952515%, 68.15033%)" offset="0.847656"/><stop stop-opacity="1" stop-color="rgb(17.712402%, 17.030334%, 68.464661%)" offset="0.851562"/><stop stop-opacity="1" stop-color="rgb(17.793274%, 17.108154%, 68.778992%)" offset="0.855469"/><stop stop-opacity="1" stop-color="rgb(17.874146%, 17.185974%, 69.093323%)" offset="0.859375"/><stop stop-opacity="1" stop-color="rgb(17.955017%, 17.263794%, 69.406128%)" offset="0.863281"/><stop stop-opacity="1" stop-color="rgb(18.037415%, 17.34314%, 69.720459%)" offset="0.867188"/><stop stop-opacity="1" stop-color="rgb(18.118286%, 17.420959%, 70.03479%)" offset="0.871094"/><stop stop-opacity="1" stop-color="rgb(18.199158%, 17.498779%, 70.349121%)" offset="0.875"/><stop stop-opacity="1" stop-color="rgb(18.280029%, 17.576599%, 70.663452%)" offset="0.878906"/><stop stop-opacity="1" stop-color="rgb(18.362427%, 17.655945%, 70.977783%)" offset="0.882812"/><stop stop-opacity="1" stop-color="rgb(18.443298%, 17.733765%, 71.290588%)" offset="0.886719"/><stop stop-opacity="1" stop-color="rgb(18.52417%, 17.811584%, 71.604919%)" offset="0.890625"/><stop stop-opacity="1" stop-color="rgb(18.605042%, 17.889404%, 71.91925%)" offset="0.894531"/><stop stop-opacity="1" stop-color="rgb(18.687439%, 17.967224%, 72.233582%)" offset="0.898438"/><stop stop-opacity="1" stop-color="rgb(18.768311%, 18.045044%, 72.547913%)" offset="0.902344"/><stop stop-opacity="1" stop-color="rgb(18.849182%, 18.12439%, 72.862244%)" offset="0.90625"/><stop stop-opacity="1" stop-color="rgb(18.930054%, 18.202209%, 73.175049%)" offset="0.910156"/><stop stop-opacity="1" stop-color="rgb(19.012451%, 18.280029%, 73.48938%)" offset="0.914062"/><stop stop-opacity="1" stop-color="rgb(19.093323%, 18.357849%, 73.803711%)" offset="0.917969"/><stop stop-opacity="1" stop-color="rgb(19.174194%, 18.437195%, 74.118042%)" offset="0.921875"/><stop stop-opacity="1" stop-color="rgb(19.255066%, 18.515015%, 74.432373%)" offset="0.925781"/><stop stop-opacity="1" stop-color="rgb(19.337463%, 18.592834%, 74.746704%)" offset="0.929688"/><stop stop-opacity="1" stop-color="rgb(19.418335%, 18.670654%, 75.059509%)" offset="0.933594"/><stop stop-opacity="1" stop-color="rgb(19.499207%, 18.748474%, 75.37384%)" offset="0.9375"/><stop stop-opacity="1" stop-color="rgb(19.580078%, 18.826294%, 75.688171%)" offset="0.941406"/><stop stop-opacity="1" stop-color="rgb(19.662476%, 18.90564%, 76.002502%)" offset="0.945312"/><stop stop-opacity="1" stop-color="rgb(19.743347%, 18.983459%, 76.316833%)" offset="0.949219"/><stop stop-opacity="1" stop-color="rgb(19.824219%, 19.061279%, 76.631165%)" offset="0.953125"/><stop stop-opacity="1" stop-color="rgb(19.90509%, 19.139099%, 76.94397%)" offset="0.957031"/><stop stop-opacity="1" stop-color="rgb(19.987488%, 19.218445%, 77.258301%)" offset="0.960938"/><stop stop-opacity="1" stop-color="rgb(20.068359%, 19.296265%, 77.572632%)" offset="0.964844"/><stop stop-opacity="1" stop-color="rgb(20.149231%, 19.374084%, 77.886963%)" offset="0.96875"/><stop stop-opacity="1" stop-color="rgb(20.230103%, 19.451904%, 78.199768%)" offset="0.972656"/><stop stop-opacity="1" stop-color="rgb(20.310974%, 19.529724%, 78.514099%)" offset="0.976562"/><stop stop-opacity="1" stop-color="rgb(20.391846%, 19.607544%, 78.82843%)" offset="0.980469"/><stop stop-opacity="1" stop-color="rgb(20.474243%, 19.68689%, 79.142761%)" offset="0.984375"/><stop stop-opacity="1" stop-color="rgb(20.555115%, 19.764709%, 79.457092%)" offset="0.988281"/><stop stop-opacity="1" stop-color="rgb(20.635986%, 19.842529%, 79.771423%)" offset="0.992188"/><stop stop-opacity="1" stop-color="rgb(20.716858%, 19.920349%, 80.084229%)" offset="0.996094"/><stop stop-opacity="1" stop-color="rgb(20.799255%, 19.999695%, 80.39856%)" offset="1"/></linearGradient><clipPath id="9273d9c9e1"><path d="M 59.0625 55.089844 L 316 55.089844 L 316 319.839844 L 59.0625 319.839844 Z M 59.0625 55.089844 " clip-rule="nonzero"/></clipPath></defs><rect x="-37.5" width="450" fill="#ffffff" y="-37.499999" height="449.999989" fill-opacity="1"/><rect x="-37.5" fill="url(#54028e991c)" width="450" y="-37.499999" height="449.999989"/><g clip-path="url(#9273d9c9e1)"><path fill="#fffefd" d="M 315.214844 300.835938 C 315.214844 300.835938 312.597656 279.417969 312.386719 277.976562 C 312.136719 276.414062 308.125 258.351562 302.855469 250.039062 C 300.289062 246.027344 290.433594 237.09375 288.203125 236.722656 C 289.175781 234.082031 285.628906 233.695312 283.714844 233.40625 C 271.292969 231.558594 270.769531 230.433594 266.621094 227.796875 C 265.652344 227.195312 264.628906 226.503906 264.113281 226.570312 C 263.226562 226.722656 262.3125 226.585938 261.4375 226.835938 C 260.902344 226.988281 260.503906 226.527344 260.074219 226.300781 C 258.191406 225.296875 254.289062 223.964844 251.476562 223.675781 C 249.441406 223.429688 247.742188 222.199219 245.839844 221.546875 C 244.480469 221.101562 243.054688 220.910156 241.660156 220.589844 C 237.691406 219.710938 234.589844 217.257812 230.765625 217.972656 C 230.703125 218.203125 230.644531 218.429688 230.585938 218.660156 C 230.359375 218.589844 225.867188 216.378906 222.332031 212.953125 C 219.539062 210.011719 217.648438 208.050781 216.925781 200.746094 C 216.089844 193.214844 217.074219 176.472656 218.011719 174.976562 C 224.570312 165.71875 222.023438 159.574219 222.566406 152.914062 C 225.875 153.464844 224.847656 151.734375 230.53125 141.910156 C 232.515625 138.4375 234.785156 136.464844 236.117188 124.253906 C 236.328125 122.042969 236.59375 119.160156 234.929688 118.136719 C 233.09375 117.042969 231.132812 117.675781 229.214844 118.613281 C 229.078125 117.746094 228.90625 116.882812 228.78125 116.015625 C 228.925781 116.300781 229.058594 116.605469 229.296875 116.832031 C 229.296875 116.832031 229.15625 115.460938 229.039062 113.238281 C 229.207031 113.851562 229.25 114.488281 229.398438 115.105469 C 229.769531 114 229.140625 113.105469 229.65625 112.089844 C 230.152344 110.460938 229.683594 110.957031 229.308594 108 C 229.585938 108.359375 229.78125 108.777344 230.089844 109.113281 C 229.933594 108.199219 230.054688 107.222656 229.6875 106.351562 C 229.597656 105.820312 230.121094 105.457031 230.207031 104.96875 C 230.261719 104.652344 230.113281 104.363281 230.011719 104.078125 C 230.082031 103.769531 230.257812 103.496094 230.339844 103.195312 C 230.1875 102.707031 229.996094 102.230469 229.828125 101.75 C 230.179688 102.050781 230.484375 102.402344 230.839844 102.703125 C 230.523438 102.171875 229.859375 100.730469 230.246094 100.222656 C 230.410156 99.675781 230.015625 99.171875 229.753906 98.71875 C 230.007812 98.429688 230.164062 98.074219 230.265625 97.703125 C 230.058594 97.242188 229.855469 96.78125 229.652344 96.324219 C 229.949219 96.445312 230.246094 96.5625 230.554688 96.65625 C 230.296875 96.382812 230.390625 95.972656 230.527344 95.667969 C 230.59375 95.5 231.199219 95.101562 230.132812 93.964844 C 230.070312 93.585938 230.347656 93.25 230.519531 92.929688 C 231.238281 93.375 231.730469 94.089844 232.164062 94.796875 C 231.761719 93.296875 230.097656 91.328125 229.050781 90.179688 C 230.210938 90.21875 231.503906 92.078125 232.132812 93.046875 C 232.058594 92.351562 231.28125 90.492188 228.675781 88.652344 C 229.066406 88.746094 229.472656 88.746094 229.875 88.71875 C 228.800781 88.101562 227.875 87.242188 227.09375 86.28125 C 227.542969 86.613281 228.015625 86.90625 228.496094 87.191406 C 227.839844 86.503906 227.328125 85.695312 226.871094 84.863281 C 227.441406 85.132812 228.007812 85.421875 228.589844 85.671875 C 226.464844 83.351562 226.996094 84.84375 225.269531 81.835938 C 226.175781 81.980469 226.289062 82.296875 226.9375 82.273438 C 226.066406 81.914062 225.160156 80.554688 225.027344 80.390625 C 225.464844 80.320312 225.882812 80.152344 226.25 79.902344 C 223.601562 79.429688 223.898438 79.632812 220.824219 77 C 221.277344 77.265625 221.746094 77.515625 222.238281 77.707031 C 221.507812 76.882812 220.738281 76.097656 220.03125 75.257812 C 220.484375 75.488281 220.902344 75.789062 221.355469 76.023438 C 218.582031 72.351562 221.515625 75.363281 217.316406 71.628906 C 217.007812 71.351562 216.59375 71.246094 216.28125 70.980469 C 215.769531 70.539062 215.488281 71.085938 214.851562 69.734375 C 215.542969 69.816406 216.214844 70.066406 216.753906 70.515625 C 216.132812 69.582031 213.976562 68.628906 212.941406 68.203125 C 212.941406 68.183594 212.941406 68.144531 212.941406 68.128906 C 213.535156 67.867188 214.207031 67.980469 214.808594 68.152344 C 214.042969 67.472656 212.265625 67.449219 211.769531 67.417969 C 211.171875 67.015625 210.796875 66.363281 210.382812 65.785156 C 209.796875 65.84375 209.210938 65.957031 208.617188 65.921875 C 208.402344 65.546875 208.195312 65.171875 207.972656 64.800781 C 208.289062 64.097656 208.90625 63.582031 209.585938 63.242188 C 207.304688 63.777344 206.578125 65.03125 206.007812 64.179688 C 205.746094 63.757812 206.214844 63.265625 205.957031 62.847656 C 205.632812 62.535156 205.074219 62.835938 204.761719 62.496094 C 204.519531 62.191406 204.800781 61.773438 204.613281 61.453125 C 204.375 61.5 204.125 61.625 203.882812 61.539062 C 203.691406 61.074219 204.65625 60.378906 205.308594 60.046875 C 204.335938 60.230469 203.375 60.460938 202.40625 60.65625 C 202.679688 60.332031 203.019531 60.066406 203.398438 59.886719 C 203.484375 59.835938 203.589844 59.804688 203.640625 59.707031 C 202.464844 59.746094 200.992188 60.6875 200.097656 61.195312 C 200.242188 60.578125 200.78125 60.203125 201.28125 59.882812 C 200.65625 59.757812 199.980469 60.507812 199.332031 61.179688 C 199.640625 60.5 198.917969 60.210938 195.785156 57.59375 C 196.085938 58.046875 196.332031 58.539062 196.621094 59 C 196.289062 58.96875 195.984375 59.113281 195.707031 59.273438 C 195.035156 57.917969 192.0625 55.90625 190.789062 55.089844 C 191.945312 56.207031 192.957031 57.484375 193.730469 58.898438 C 193.164062 58.59375 192.503906 58.535156 191.875 58.457031 C 191.183594 57.25 189.773438 55.710938 188.382812 55.628906 C 189.53125 56.675781 190.550781 58.171875 190.773438 58.71875 C 190.003906 58.570312 189.238281 58.425781 188.460938 58.359375 C 188.148438 58.328125 187.878906 58.152344 187.574219 58.105469 C 186.894531 58.054688 186.210938 58.054688 185.53125 57.984375 C 184.835938 57.171875 184.105469 56.359375 183.21875 55.75 C 183.839844 56.335938 184.273438 57.097656 184.554688 57.902344 C 182.933594 58.792969 182.96875 59.316406 182.316406 58.554688 C 182.195312 58.0625 182.210938 57.542969 182.105469 57.042969 C 181.726562 57.292969 181.644531 57.789062 181.679688 58.210938 C 181.683594 58.453125 181.828125 58.652344 181.917969 58.867188 C 181.539062 59.085938 181.066406 58.867188 180.660156 58.820312 C 180.65625 58.078125 179.742188 57.429688 179.082031 57.09375 C 180.160156 58.234375 179.480469 58.390625 179.609375 59.117188 C 179.421875 59.425781 178.140625 59.816406 177.652344 59.5625 C 177.304688 59.378906 176.867188 59.160156 176.808594 58.722656 C 176.5625 58.25 175.996094 58.09375 175.519531 57.980469 C 175.800781 58.210938 176.191406 58.492188 175.496094 59.273438 C 174.757812 59.289062 174.019531 59.238281 173.304688 59.078125 C 172.804688 58.523438 172.023438 57.160156 170.972656 56.753906 C 172.292969 57.722656 172.484375 58.988281 173.125 59.609375 C 172.726562 59.652344 172.324219 59.617188 171.9375 59.550781 C 170.871094 58.988281 169.273438 58.523438 168.117188 58.476562 C 168.839844 58.835938 169.539062 59.265625 170.113281 59.839844 C 169.535156 59.910156 168.960938 60.023438 168.382812 60.089844 C 166.941406 59.570312 164.917969 59.640625 163.785156 60.089844 C 164.773438 60.117188 165.769531 60.28125 166.6875 60.640625 C 164.203125 60.703125 163.875 60.261719 161.320312 62.191406 C 161.683594 62.226562 162.128906 62.125 162.371094 63.46875 C 161.964844 63.082031 161.40625 62.941406 160.871094 62.847656 C 161.425781 63.429688 161.417969 64.328125 161.957031 64.925781 C 161.957031 64.953125 161.957031 65 161.960938 65.027344 C 161.667969 65.023438 161.136719 64.964844 160.875 64.839844 C 159.605469 63.582031 155.589844 61.878906 153.945312 61.214844 C 154.839844 61.960938 155.734375 62.707031 156.585938 63.5 C 154.933594 62.261719 153.335938 62.078125 152.519531 62.304688 C 154.800781 62.496094 157.378906 65.269531 158.761719 67.089844 C 158.070312 66.375 157.105469 65.984375 156.125 65.871094 C 157.101562 66.359375 158.085938 68.019531 158.335938 68.546875 C 157.011719 67.046875 153.566406 65.367188 151.722656 64.589844 C 152.550781 65.121094 153.34375 65.714844 154.023438 66.429688 C 153.070312 65.878906 150.804688 65.277344 150.484375 65.257812 C 151.863281 65.816406 153.117188 66.640625 154.324219 67.496094 C 151.996094 66.320312 146.609375 65.535156 146.175781 65.558594 C 148.636719 66.382812 151.027344 67.398438 153.417969 68.410156 C 153.015625 68.449219 150.035156 67.6875 144.945312 69.402344 C 146.269531 69.164062 147.609375 68.964844 148.957031 68.957031 C 146.730469 69.195312 143.546875 70.6875 141.566406 71.738281 C 142.125 71.6875 142.679688 71.550781 143.242188 71.601562 C 143.277344 71.621094 143.34375 71.660156 143.378906 71.679688 C 142.488281 72.363281 141.535156 72.957031 140.601562 73.578125 C 140.449219 72.804688 139.84375 71.898438 138.875 71.820312 C 139.582031 72.757812 139.691406 73.214844 140.09375 73.546875 C 139.84375 74.183594 139.363281 74.703125 138.9375 75.230469 C 138.136719 75.132812 137.386719 75.550781 136.789062 76.035156 C 137.09375 75.96875 137.460938 75.800781 137.746094 76.019531 C 138.140625 76.425781 137.390625 77.828125 136.683594 77.8125 C 136.890625 78.074219 137.03125 78.382812 137.125 78.703125 C 136.046875 78.554688 135.019531 79.050781 134.132812 79.609375 C 134.496094 79.554688 135.539062 79.023438 137.230469 79.695312 C 136.453125 79.664062 135.792969 80.140625 135.152344 80.515625 C 135.59375 80.457031 136.082031 80.414062 136.476562 80.65625 C 136.726562 80.785156 136.535156 80.679688 136.160156 83.46875 C 135.816406 82.914062 135.273438 82.503906 134.65625 82.296875 C 134.96875 82.65625 135.152344 83.097656 135.316406 83.539062 C 134.96875 83.210938 134.484375 83.136719 134.027344 83.105469 C 134.324219 83.597656 134.636719 84.097656 135.074219 84.472656 C 135.34375 84.769531 135.59375 84.25 135.828125 85.03125 C 135.234375 85.660156 134.648438 86.292969 134.070312 86.933594 C 134.714844 86.507812 135.289062 85.964844 135.996094 85.640625 C 135.835938 86.257812 135.6875 86.878906 135.5625 87.5 C 134.84375 87.617188 134.269531 88.117188 133.71875 88.558594 C 134.285156 88.578125 134.847656 88.535156 135.410156 88.542969 C 134.863281 88.632812 134.371094 88.933594 134.023438 89.355469 C 134.351562 89.242188 134.761719 89.015625 135.207031 89.847656 C 134.425781 90.394531 133.023438 92.195312 132.761719 92.582031 C 133.488281 91.917969 134.117188 91.132812 134.933594 90.566406 C 135.167969 92.148438 133.820312 92.859375 133.335938 94.40625 C 133.832031 93.875 134.019531 93.121094 134.511719 92.589844 C 134.4375 93.316406 134.285156 94.035156 134.058594 94.726562 C 135.027344 95.65625 134.710938 95.863281 133.835938 96.960938 C 134.023438 96.890625 134.222656 96.84375 134.421875 96.824219 C 134.25 97.1875 134.539062 98.164062 134.84375 99.328125 C 134.476562 100.632812 134.164062 101.953125 133.894531 103.285156 C 133.925781 103.34375 133.988281 103.464844 134.019531 103.527344 C 134.09375 102.777344 134.285156 102.023438 134.675781 101.375 C 134.804688 101.484375 134.8125 101.660156 134.835938 101.816406 C 135.035156 103.886719 134.214844 104.464844 135.441406 106.023438 C 136.933594 108.167969 135.398438 107.515625 135.296875 108.117188 C 135.421875 108.542969 135.832031 108.800781 136.007812 109.199219 C 135.785156 109.824219 135.597656 110.460938 135.371094 111.082031 C 135.6875 110.867188 135.976562 110.605469 136.335938 110.460938 C 136.117188 111.960938 136.378906 112.578125 136.285156 113.246094 C 136.285156 113.246094 135.609375 114.886719 135.410156 115.90625 C 135.722656 115.378906 136 114.824219 136.347656 114.320312 C 136.652344 115.6875 136.566406 115.582031 136.003906 117.65625 C 133.785156 117.128906 131.578125 117.820312 131.273438 120.75 C 131.042969 124.082031 132.425781 131.832031 133.515625 135.144531 C 134.941406 139.445312 139.011719 144.242188 141.953125 151.539062 C 142.527344 152.949219 143.925781 153.15625 145.398438 152.839844 C 145.996094 160.394531 142.859375 166.640625 152.054688 177.652344 C 151.84375 201.417969 148.851562 210.683594 139.390625 218.007812 C 139.414062 217.597656 139.476562 217.195312 139.570312 216.796875 C 138.472656 216.996094 135.550781 216.480469 134.59375 217.152344 C 134.007812 217.5625 133.097656 219.140625 132.90625 219.941406 C 132.695312 220.722656 132.925781 220.835938 132.316406 221.015625 C 130.183594 221.527344 129.996094 220.675781 128.441406 220.945312 C 127.820312 221.058594 127.230469 221.289062 126.609375 221.398438 C 126.132812 221.488281 125.605469 221.582031 125.261719 221.964844 C 124.84375 222.425781 123.679688 224.277344 123.664062 225.363281 C 123.707031 225.851562 123.082031 225.828125 118.445312 227.898438 C 111.777344 230.804688 114.058594 229.316406 110.746094 231.410156 C 107.574219 233.46875 99.625 239.179688 93.1875 240.589844 C 90.042969 241.328125 87.640625 240.949219 84.316406 243.375 C 80.429688 246.25 81.214844 246.636719 81.144531 247.308594 C 80.953125 247.445312 80.710938 247.464844 80.488281 247.53125 C 79.414062 247.785156 78.449219 248.359375 77.582031 249.027344 C 68.796875 255.773438 66.011719 267.886719 63.890625 274.390625 C 60.59375 284.542969 61.5625 278.652344 60.703125 289.402344 C 59.980469 300.539062 59.597656 292.964844 59.621094 311.902344 C 59.625 314.273438 59.660156 316.664062 59.261719 319.011719 C 59.195312 319.304688 59.148438 319.605469 59.066406 319.898438 L 315.933594 319.898438 C 311.296875 305.945312 315.261719 306.929688 315.214844 300.835938 Z M 315.214844 300.835938 " fill-opacity="1" fill-rule="nonzero"/></g></svg>